<mxfile host="Electron" modified="2024-02-16T01:30:31.757Z" agent="Mozilla/5.0 (Windows NT 10.0; Win64; x64) AppleWebKit/537.36 (KHTML, like Gecko) draw.io/22.1.21 Chrome/120.0.6099.109 Electron/28.1.0 Safari/537.36" etag="e8V793qQ8YfP9PICzMPV" version="22.1.21" type="device">
  <diagram name="PÃ¡gina-1" id="dw67c7rHJVkl7Kbvgfk_">
    <mxGraphModel dx="1870" dy="1873" grid="1" gridSize="10" guides="1" tooltips="1" connect="1" arrows="1" fold="1" page="1" pageScale="1" pageWidth="827" pageHeight="1169" math="0" shadow="0">
      <root>
        <mxCell id="0" />
        <mxCell id="1" parent="0" />
        <mxCell id="n_aLUPieSMHFs7jvUW3T-4" value="LCD_UART" style="rounded=0;whiteSpace=wrap;html=1;" parent="1" vertex="1">
          <mxGeometry x="280" y="-140" width="140" height="90" as="geometry" />
        </mxCell>
        <mxCell id="n_aLUPieSMHFs7jvUW3T-5" value="" style="edgeStyle=none;orthogonalLoop=1;jettySize=auto;html=1;rounded=0;" parent="1" edge="1">
          <mxGeometry width="100" relative="1" as="geometry">
            <mxPoint x="210" y="-115.57" as="sourcePoint" />
            <mxPoint x="280" y="-115.57" as="targetPoint" />
            <Array as="points" />
          </mxGeometry>
        </mxCell>
        <mxCell id="n_aLUPieSMHFs7jvUW3T-6" value="RX" style="text;html=1;align=right;verticalAlign=middle;resizable=0;points=[];autosize=1;strokeColor=none;fillColor=none;" parent="1" vertex="1">
          <mxGeometry x="160" y="-135" width="40" height="30" as="geometry" />
        </mxCell>
        <mxCell id="n_aLUPieSMHFs7jvUW3T-7" value="" style="triangle;whiteSpace=wrap;html=1;" parent="1" vertex="1">
          <mxGeometry x="280" y="-75" width="20" height="20" as="geometry" />
        </mxCell>
        <mxCell id="n_aLUPieSMHFs7jvUW3T-8" value="" style="edgeStyle=none;orthogonalLoop=1;jettySize=auto;html=1;rounded=0;" parent="1" edge="1">
          <mxGeometry width="100" relative="1" as="geometry">
            <mxPoint x="260" y="-30" as="sourcePoint" />
            <mxPoint x="280" y="-65.29000000000002" as="targetPoint" />
            <Array as="points">
              <mxPoint x="260" y="-65" />
            </Array>
          </mxGeometry>
        </mxCell>
        <mxCell id="n_aLUPieSMHFs7jvUW3T-9" value="clk" style="text;html=1;align=center;verticalAlign=middle;resizable=0;points=[];autosize=1;strokeColor=none;fillColor=none;" parent="1" vertex="1">
          <mxGeometry x="220" y="-60" width="40" height="30" as="geometry" />
        </mxCell>
        <mxCell id="n_aLUPieSMHFs7jvUW3T-11" value="" style="edgeStyle=none;orthogonalLoop=1;jettySize=auto;html=1;rounded=0;" parent="1" edge="1">
          <mxGeometry width="100" relative="1" as="geometry">
            <mxPoint x="420" y="-112.5" as="sourcePoint" />
            <mxPoint x="490" y="-112.5" as="targetPoint" />
            <Array as="points" />
          </mxGeometry>
        </mxCell>
        <mxCell id="n_aLUPieSMHFs7jvUW3T-12" value="/" style="text;html=1;align=center;verticalAlign=middle;resizable=0;points=[];autosize=1;strokeColor=none;fillColor=none;fontStyle=0;fontSize=16;" parent="1" vertex="1">
          <mxGeometry x="436" y="-127.5" width="30" height="30" as="geometry" />
        </mxCell>
        <mxCell id="n_aLUPieSMHFs7jvUW3T-13" value="8" style="text;html=1;align=center;verticalAlign=middle;resizable=0;points=[];autosize=1;strokeColor=none;fillColor=none;" parent="1" vertex="1">
          <mxGeometry x="436" y="-142.5" width="30" height="30" as="geometry" />
        </mxCell>
        <mxCell id="n_aLUPieSMHFs7jvUW3T-14" value="CHAR" style="text;html=1;align=left;verticalAlign=middle;resizable=0;points=[];autosize=1;strokeColor=none;fillColor=none;" parent="1" vertex="1">
          <mxGeometry x="500" y="-132.5" width="60" height="30" as="geometry" />
        </mxCell>
        <mxCell id="Iv14-FSUBVYo6UK2hsgv-2" value="" style="edgeStyle=none;orthogonalLoop=1;jettySize=auto;html=1;rounded=0;" parent="1" edge="1">
          <mxGeometry width="100" relative="1" as="geometry">
            <mxPoint x="420" y="-80" as="sourcePoint" />
            <mxPoint x="490" y="-80" as="targetPoint" />
            <Array as="points" />
          </mxGeometry>
        </mxCell>
        <mxCell id="Iv14-FSUBVYo6UK2hsgv-3" value="CMD_PX_GO" style="text;html=1;align=left;verticalAlign=middle;resizable=0;points=[];autosize=1;strokeColor=none;fillColor=none;" parent="1" vertex="1">
          <mxGeometry x="500" y="-97.5" width="100" height="30" as="geometry" />
        </mxCell>
        <mxCell id="ebRNbiRUpSSi_KYoHrGS-12" value="" style="group;fillColor=#f5f5f5;fontColor=#333333;strokeColor=#666666;" parent="1" vertex="1" connectable="0">
          <mxGeometry x="8" y="540" width="684" height="170" as="geometry" />
        </mxCell>
        <mxCell id="N_uz7s-ICIcDSKpqxhLz-42" value="&amp;gt;&amp;gt;&lt;br&gt;Bshift_CHAR" style="rounded=0;whiteSpace=wrap;html=1;" parent="ebRNbiRUpSSi_KYoHrGS-12" vertex="1">
          <mxGeometry x="160" y="30" width="120" height="80" as="geometry" />
        </mxCell>
        <mxCell id="N_uz7s-ICIcDSKpqxhLz-44" value="" style="edgeStyle=none;orthogonalLoop=1;jettySize=auto;html=1;rounded=0;" parent="ebRNbiRUpSSi_KYoHrGS-12" edge="1">
          <mxGeometry width="100" relative="1" as="geometry">
            <mxPoint x="90" y="40.430000000000064" as="sourcePoint" />
            <mxPoint x="160" y="40.430000000000064" as="targetPoint" />
            <Array as="points" />
          </mxGeometry>
        </mxCell>
        <mxCell id="N_uz7s-ICIcDSKpqxhLz-45" value="RX" style="text;html=1;align=right;verticalAlign=middle;resizable=0;points=[];autosize=1;strokeColor=none;fillColor=none;fontStyle=1;fontColor=#0000FF;" parent="ebRNbiRUpSSi_KYoHrGS-12" vertex="1">
          <mxGeometry x="40" y="21" width="40" height="30" as="geometry" />
        </mxCell>
        <mxCell id="N_uz7s-ICIcDSKpqxhLz-50" value="" style="edgeStyle=none;orthogonalLoop=1;jettySize=auto;html=1;rounded=0;" parent="ebRNbiRUpSSi_KYoHrGS-12" edge="1">
          <mxGeometry width="100" relative="1" as="geometry">
            <mxPoint x="280" y="50" as="sourcePoint" />
            <mxPoint x="350" y="50" as="targetPoint" />
            <Array as="points" />
          </mxGeometry>
        </mxCell>
        <mxCell id="N_uz7s-ICIcDSKpqxhLz-51" value="BITSHIFT" style="text;html=1;align=right;verticalAlign=middle;resizable=0;points=[];autosize=1;strokeColor=none;fillColor=none;fontStyle=1;fontColor=#FF0000;" parent="ebRNbiRUpSSi_KYoHrGS-12" vertex="1">
          <mxGeometry y="51" width="80" height="30" as="geometry" />
        </mxCell>
        <mxCell id="N_uz7s-ICIcDSKpqxhLz-52" value="" style="edgeStyle=none;orthogonalLoop=1;jettySize=auto;html=1;rounded=0;" parent="ebRNbiRUpSSi_KYoHrGS-12" edge="1">
          <mxGeometry width="100" relative="1" as="geometry">
            <mxPoint x="90" y="65.8900000000001" as="sourcePoint" />
            <mxPoint x="160" y="65.8900000000001" as="targetPoint" />
            <Array as="points" />
          </mxGeometry>
        </mxCell>
        <mxCell id="N_uz7s-ICIcDSKpqxhLz-53" value="RSHIFT" style="text;html=1;align=left;verticalAlign=middle;resizable=0;points=[];autosize=1;strokeColor=none;fillColor=none;fontColor=#000000;fontStyle=0" parent="ebRNbiRUpSSi_KYoHrGS-12" vertex="1">
          <mxGeometry x="354" y="36" width="70" height="30" as="geometry" />
        </mxCell>
        <mxCell id="N_uz7s-ICIcDSKpqxhLz-54" value="&lt;b&gt;/&lt;/b&gt;" style="text;html=1;align=center;verticalAlign=middle;resizable=0;points=[];autosize=1;strokeColor=none;fillColor=none;" parent="ebRNbiRUpSSi_KYoHrGS-12" vertex="1">
          <mxGeometry x="296" y="36" width="30" height="30" as="geometry" />
        </mxCell>
        <mxCell id="N_uz7s-ICIcDSKpqxhLz-55" value="8" style="text;html=1;align=center;verticalAlign=middle;resizable=0;points=[];autosize=1;strokeColor=none;fillColor=none;" parent="ebRNbiRUpSSi_KYoHrGS-12" vertex="1">
          <mxGeometry x="296" y="20" width="30" height="30" as="geometry" />
        </mxCell>
        <mxCell id="N_uz7s-ICIcDSKpqxhLz-62" value="Bitshift register" style="text;html=1;align=left;verticalAlign=middle;resizable=0;points=[];autosize=1;strokeColor=none;fillColor=none;" parent="ebRNbiRUpSSi_KYoHrGS-12" vertex="1">
          <mxGeometry x="424" y="30" width="100" height="30" as="geometry" />
        </mxCell>
        <mxCell id="n_aLUPieSMHFs7jvUW3T-24" value="" style="triangle;whiteSpace=wrap;html=1;" parent="ebRNbiRUpSSi_KYoHrGS-12" vertex="1">
          <mxGeometry x="160" y="90" width="20" height="20" as="geometry" />
        </mxCell>
        <mxCell id="n_aLUPieSMHFs7jvUW3T-25" value="" style="edgeStyle=none;orthogonalLoop=1;jettySize=auto;html=1;rounded=0;endArrow=none;endFill=0;" parent="ebRNbiRUpSSi_KYoHrGS-12" edge="1">
          <mxGeometry width="100" relative="1" as="geometry">
            <mxPoint x="140" y="135" as="sourcePoint" />
            <mxPoint x="160" y="99.71000000000004" as="targetPoint" />
            <Array as="points">
              <mxPoint x="140" y="100" />
            </Array>
          </mxGeometry>
        </mxCell>
        <mxCell id="n_aLUPieSMHFs7jvUW3T-26" value="clk" style="text;html=1;align=center;verticalAlign=middle;resizable=0;points=[];autosize=1;strokeColor=none;fillColor=none;" parent="ebRNbiRUpSSi_KYoHrGS-12" vertex="1">
          <mxGeometry x="100" y="105" width="40" height="30" as="geometry" />
        </mxCell>
        <mxCell id="Iv14-FSUBVYo6UK2hsgv-1" value="8 bitshift register" style="text;html=1;align=center;verticalAlign=middle;resizable=0;points=[];autosize=1;strokeColor=none;fillColor=none;" parent="ebRNbiRUpSSi_KYoHrGS-12" vertex="1">
          <mxGeometry x="160" width="110" height="30" as="geometry" />
        </mxCell>
        <mxCell id="ebRNbiRUpSSi_KYoHrGS-1" value="RSHIFT se conecta directamente a la salida" style="text;html=1;align=left;verticalAlign=middle;resizable=0;points=[];autosize=1;strokeColor=none;fillColor=none;" parent="ebRNbiRUpSSi_KYoHrGS-12" vertex="1">
          <mxGeometry x="424" y="60" width="260" height="30" as="geometry" />
        </mxCell>
        <mxCell id="ebRNbiRUpSSi_KYoHrGS-9" style="edgeStyle=orthogonalEdgeStyle;rounded=0;orthogonalLoop=1;jettySize=auto;html=1;startArrow=none;startFill=0;endArrow=none;endFill=0;" parent="ebRNbiRUpSSi_KYoHrGS-12" source="ebRNbiRUpSSi_KYoHrGS-10" edge="1">
          <mxGeometry relative="1" as="geometry">
            <mxPoint x="215" y="140" as="targetPoint" />
          </mxGeometry>
        </mxCell>
        <mxCell id="ebRNbiRUpSSi_KYoHrGS-10" value="" style="ellipse;whiteSpace=wrap;html=1;" parent="ebRNbiRUpSSi_KYoHrGS-12" vertex="1">
          <mxGeometry x="210" y="110" width="10" height="10" as="geometry" />
        </mxCell>
        <mxCell id="ebRNbiRUpSSi_KYoHrGS-11" value="RESET_L*" style="text;html=1;align=center;verticalAlign=middle;resizable=0;points=[];autosize=1;strokeColor=none;fillColor=none;" parent="ebRNbiRUpSSi_KYoHrGS-12" vertex="1">
          <mxGeometry x="180" y="140" width="80" height="30" as="geometry" />
        </mxCell>
        <mxCell id="ebRNbiRUpSSi_KYoHrGS-13" value="" style="group;fillColor=#f5f5f5;fontColor=#333333;strokeColor=#666666;" parent="1" vertex="1" connectable="0">
          <mxGeometry x="10" y="320" width="790" height="200" as="geometry" />
        </mxCell>
        <mxCell id="N_uz7s-ICIcDSKpqxhLz-25" value="CONT" style="rounded=0;whiteSpace=wrap;html=1;" parent="ebRNbiRUpSSi_KYoHrGS-13" vertex="1">
          <mxGeometry x="200" y="30" width="120" height="110" as="geometry" />
        </mxCell>
        <mxCell id="N_uz7s-ICIcDSKpqxhLz-27" value="" style="edgeStyle=none;orthogonalLoop=1;jettySize=auto;html=1;rounded=0;" parent="ebRNbiRUpSSi_KYoHrGS-13" edge="1">
          <mxGeometry width="100" relative="1" as="geometry">
            <mxPoint x="130" y="39.43000000000001" as="sourcePoint" />
            <mxPoint x="200" y="39.43000000000001" as="targetPoint" />
            <Array as="points" />
          </mxGeometry>
        </mxCell>
        <mxCell id="N_uz7s-ICIcDSKpqxhLz-28" value="PR_CONT_HALF" style="text;html=1;align=right;verticalAlign=middle;resizable=0;points=[];autosize=1;strokeColor=none;fillColor=none;fontStyle=1;fontColor=#FF0000;" parent="ebRNbiRUpSSi_KYoHrGS-13" vertex="1">
          <mxGeometry y="20" width="120" height="30" as="geometry" />
        </mxCell>
        <mxCell id="N_uz7s-ICIcDSKpqxhLz-31" value="" style="edgeStyle=none;orthogonalLoop=1;jettySize=auto;html=1;rounded=0;" parent="ebRNbiRUpSSi_KYoHrGS-13" edge="1">
          <mxGeometry width="100" relative="1" as="geometry">
            <mxPoint x="320" y="129.70999999999998" as="sourcePoint" />
            <mxPoint x="390" y="129.70999999999998" as="targetPoint" />
            <Array as="points" />
          </mxGeometry>
        </mxCell>
        <mxCell id="N_uz7s-ICIcDSKpqxhLz-32" value="END_CONT" style="text;html=1;align=center;verticalAlign=middle;resizable=0;points=[];autosize=1;strokeColor=none;fillColor=none;fontStyle=1;fontColor=#00CC00;" parent="ebRNbiRUpSSi_KYoHrGS-13" vertex="1">
          <mxGeometry x="385" y="115" width="90" height="30" as="geometry" />
        </mxCell>
        <mxCell id="N_uz7s-ICIcDSKpqxhLz-33" value="" style="edgeStyle=none;orthogonalLoop=1;jettySize=auto;html=1;rounded=0;" parent="ebRNbiRUpSSi_KYoHrGS-13" edge="1">
          <mxGeometry width="100" relative="1" as="geometry">
            <mxPoint x="320" y="60" as="sourcePoint" />
            <mxPoint x="390" y="60" as="targetPoint" />
            <Array as="points" />
          </mxGeometry>
        </mxCell>
        <mxCell id="N_uz7s-ICIcDSKpqxhLz-34" value="PR_CONT_FULL" style="text;html=1;align=right;verticalAlign=middle;resizable=0;points=[];autosize=1;strokeColor=none;fillColor=none;fontStyle=1;fontColor=#FF0000;" parent="ebRNbiRUpSSi_KYoHrGS-13" vertex="1">
          <mxGeometry y="50" width="120" height="30" as="geometry" />
        </mxCell>
        <mxCell id="N_uz7s-ICIcDSKpqxhLz-35" value="" style="edgeStyle=none;orthogonalLoop=1;jettySize=auto;html=1;rounded=0;" parent="ebRNbiRUpSSi_KYoHrGS-13" edge="1">
          <mxGeometry width="100" relative="1" as="geometry">
            <mxPoint x="130" y="64.89000000000004" as="sourcePoint" />
            <mxPoint x="200" y="64.89000000000004" as="targetPoint" />
            <Array as="points" />
          </mxGeometry>
        </mxCell>
        <mxCell id="N_uz7s-ICIcDSKpqxhLz-36" value="RCONT" style="text;html=1;align=left;verticalAlign=middle;resizable=0;points=[];autosize=1;strokeColor=none;fillColor=none;fontColor=#000000;fontStyle=0" parent="ebRNbiRUpSSi_KYoHrGS-13" vertex="1">
          <mxGeometry x="394" y="46" width="70" height="30" as="geometry" />
        </mxCell>
        <mxCell id="N_uz7s-ICIcDSKpqxhLz-37" value="&lt;b&gt;/&lt;/b&gt;" style="text;html=1;align=center;verticalAlign=middle;resizable=0;points=[];autosize=1;strokeColor=none;fillColor=none;" parent="ebRNbiRUpSSi_KYoHrGS-13" vertex="1">
          <mxGeometry x="336" y="46" width="30" height="30" as="geometry" />
        </mxCell>
        <mxCell id="N_uz7s-ICIcDSKpqxhLz-38" value="10" style="text;html=1;align=center;verticalAlign=middle;resizable=0;points=[];autosize=1;strokeColor=none;fillColor=none;" parent="ebRNbiRUpSSi_KYoHrGS-13" vertex="1">
          <mxGeometry x="331" y="30" width="40" height="30" as="geometry" />
        </mxCell>
        <mxCell id="N_uz7s-ICIcDSKpqxhLz-39" value="" style="edgeStyle=none;orthogonalLoop=1;jettySize=auto;html=1;rounded=0;" parent="ebRNbiRUpSSi_KYoHrGS-13" edge="1">
          <mxGeometry width="100" relative="1" as="geometry">
            <mxPoint x="130" y="90.89000000000004" as="sourcePoint" />
            <mxPoint x="200" y="90.89000000000004" as="targetPoint" />
            <Array as="points" />
          </mxGeometry>
        </mxCell>
        <mxCell id="N_uz7s-ICIcDSKpqxhLz-40" value="DECR_CONT" style="text;html=1;align=right;verticalAlign=middle;resizable=0;points=[];autosize=1;strokeColor=none;fillColor=none;fontStyle=1;fontColor=#FF0000;" parent="ebRNbiRUpSSi_KYoHrGS-13" vertex="1">
          <mxGeometry x="20" y="76" width="100" height="30" as="geometry" />
        </mxCell>
        <mxCell id="N_uz7s-ICIcDSKpqxhLz-58" value="10 bit cont" style="text;html=1;align=center;verticalAlign=middle;resizable=0;points=[];autosize=1;strokeColor=none;fillColor=none;" parent="ebRNbiRUpSSi_KYoHrGS-13" vertex="1">
          <mxGeometry x="220" width="80" height="30" as="geometry" />
        </mxCell>
        <mxCell id="N_uz7s-ICIcDSKpqxhLz-61" value="Para colocarse en la mitad &lt;br&gt;del ciclo o avanzar un ciclo entero" style="text;html=1;align=left;verticalAlign=middle;resizable=0;points=[];autosize=1;strokeColor=none;fillColor=none;" parent="ebRNbiRUpSSi_KYoHrGS-13" vertex="1">
          <mxGeometry x="510" y="41" width="200" height="40" as="geometry" />
        </mxCell>
        <mxCell id="N_uz7s-ICIcDSKpqxhLz-64" value="57600 bd, 868.04 -1 ciclos para 1 bit" style="text;html=1;align=left;verticalAlign=middle;resizable=0;points=[];autosize=1;strokeColor=none;fillColor=none;" parent="ebRNbiRUpSSi_KYoHrGS-13" vertex="1">
          <mxGeometry x="510" y="85" width="220" height="30" as="geometry" />
        </mxCell>
        <mxCell id="N_uz7s-ICIcDSKpqxhLz-65" value="57600 bd, 434 ciclos para colocarse en la mitad" style="text;html=1;align=left;verticalAlign=middle;resizable=0;points=[];autosize=1;strokeColor=none;fillColor=none;" parent="ebRNbiRUpSSi_KYoHrGS-13" vertex="1">
          <mxGeometry x="510" y="110" width="280" height="30" as="geometry" />
        </mxCell>
        <mxCell id="n_aLUPieSMHFs7jvUW3T-21" value="" style="triangle;whiteSpace=wrap;html=1;" parent="ebRNbiRUpSSi_KYoHrGS-13" vertex="1">
          <mxGeometry x="200" y="120" width="20" height="20" as="geometry" />
        </mxCell>
        <mxCell id="n_aLUPieSMHFs7jvUW3T-22" value="" style="edgeStyle=none;orthogonalLoop=1;jettySize=auto;html=1;rounded=0;endArrow=none;endFill=0;" parent="ebRNbiRUpSSi_KYoHrGS-13" edge="1">
          <mxGeometry width="100" relative="1" as="geometry">
            <mxPoint x="180" y="165" as="sourcePoint" />
            <mxPoint x="200" y="129.70999999999998" as="targetPoint" />
            <Array as="points">
              <mxPoint x="180" y="130" />
            </Array>
          </mxGeometry>
        </mxCell>
        <mxCell id="n_aLUPieSMHFs7jvUW3T-23" value="clk" style="text;html=1;align=center;verticalAlign=middle;resizable=0;points=[];autosize=1;strokeColor=none;fillColor=none;" parent="ebRNbiRUpSSi_KYoHrGS-13" vertex="1">
          <mxGeometry x="140" y="140" width="40" height="30" as="geometry" />
        </mxCell>
        <mxCell id="ebRNbiRUpSSi_KYoHrGS-6" style="edgeStyle=orthogonalEdgeStyle;rounded=0;orthogonalLoop=1;jettySize=auto;html=1;startArrow=none;startFill=0;endArrow=none;endFill=0;" parent="ebRNbiRUpSSi_KYoHrGS-13" source="ebRNbiRUpSSi_KYoHrGS-7" edge="1">
          <mxGeometry relative="1" as="geometry">
            <mxPoint x="255" y="170" as="targetPoint" />
          </mxGeometry>
        </mxCell>
        <mxCell id="ebRNbiRUpSSi_KYoHrGS-7" value="" style="ellipse;whiteSpace=wrap;html=1;" parent="ebRNbiRUpSSi_KYoHrGS-13" vertex="1">
          <mxGeometry x="250" y="140" width="10" height="10" as="geometry" />
        </mxCell>
        <mxCell id="ebRNbiRUpSSi_KYoHrGS-8" value="RESET_L*" style="text;html=1;align=center;verticalAlign=middle;resizable=0;points=[];autosize=1;strokeColor=none;fillColor=none;" parent="ebRNbiRUpSSi_KYoHrGS-13" vertex="1">
          <mxGeometry x="220" y="170" width="80" height="30" as="geometry" />
        </mxCell>
        <mxCell id="ebRNbiRUpSSi_KYoHrGS-14" value="" style="group;fillColor=#f5f5f5;fontColor=#333333;strokeColor=#666666;" parent="1" vertex="1" connectable="0">
          <mxGeometry x="10" y="100" width="655" height="200" as="geometry" />
        </mxCell>
        <mxCell id="N_uz7s-ICIcDSKpqxhLz-1" value="LOOP" style="rounded=0;whiteSpace=wrap;html=1;" parent="ebRNbiRUpSSi_KYoHrGS-14" vertex="1">
          <mxGeometry x="170" y="40" width="120" height="100" as="geometry" />
        </mxCell>
        <mxCell id="N_uz7s-ICIcDSKpqxhLz-4" value="" style="edgeStyle=none;orthogonalLoop=1;jettySize=auto;html=1;rounded=0;" parent="ebRNbiRUpSSi_KYoHrGS-14" edge="1">
          <mxGeometry width="100" relative="1" as="geometry">
            <mxPoint x="100" y="59.43000000000001" as="sourcePoint" />
            <mxPoint x="170" y="59.43000000000001" as="targetPoint" />
            <Array as="points" />
          </mxGeometry>
        </mxCell>
        <mxCell id="N_uz7s-ICIcDSKpqxhLz-5" value="CLR_LOOP" style="text;html=1;align=right;verticalAlign=middle;resizable=0;points=[];autosize=1;strokeColor=none;fillColor=none;fontStyle=1;fontColor=#FF0000;" parent="ebRNbiRUpSSi_KYoHrGS-14" vertex="1">
          <mxGeometry y="40" width="90" height="30" as="geometry" />
        </mxCell>
        <mxCell id="N_uz7s-ICIcDSKpqxhLz-11" value="" style="edgeStyle=none;orthogonalLoop=1;jettySize=auto;html=1;rounded=0;" parent="ebRNbiRUpSSi_KYoHrGS-14" edge="1">
          <mxGeometry width="100" relative="1" as="geometry">
            <mxPoint x="290" y="129.70999999999998" as="sourcePoint" />
            <mxPoint x="360" y="129.70999999999998" as="targetPoint" />
            <Array as="points" />
          </mxGeometry>
        </mxCell>
        <mxCell id="N_uz7s-ICIcDSKpqxhLz-12" value="END_LOOP" style="text;html=1;align=center;verticalAlign=middle;resizable=0;points=[];autosize=1;strokeColor=none;fillColor=none;fontStyle=1;fontColor=#00CC00;" parent="ebRNbiRUpSSi_KYoHrGS-14" vertex="1">
          <mxGeometry x="355" y="115" width="90" height="30" as="geometry" />
        </mxCell>
        <mxCell id="N_uz7s-ICIcDSKpqxhLz-13" value="" style="edgeStyle=none;orthogonalLoop=1;jettySize=auto;html=1;rounded=0;" parent="ebRNbiRUpSSi_KYoHrGS-14" edge="1">
          <mxGeometry width="100" relative="1" as="geometry">
            <mxPoint x="290" y="60" as="sourcePoint" />
            <mxPoint x="360" y="60" as="targetPoint" />
            <Array as="points" />
          </mxGeometry>
        </mxCell>
        <mxCell id="N_uz7s-ICIcDSKpqxhLz-14" value="INCR_LOOP" style="text;html=1;align=right;verticalAlign=middle;resizable=0;points=[];autosize=1;strokeColor=none;fillColor=none;fontStyle=1;fontColor=#FF0000;" parent="ebRNbiRUpSSi_KYoHrGS-14" vertex="1">
          <mxGeometry y="70" width="90" height="30" as="geometry" />
        </mxCell>
        <mxCell id="N_uz7s-ICIcDSKpqxhLz-15" value="" style="edgeStyle=none;orthogonalLoop=1;jettySize=auto;html=1;rounded=0;" parent="ebRNbiRUpSSi_KYoHrGS-14" edge="1">
          <mxGeometry width="100" relative="1" as="geometry">
            <mxPoint x="100" y="84.71000000000001" as="sourcePoint" />
            <mxPoint x="170" y="84.71000000000001" as="targetPoint" />
            <Array as="points" />
          </mxGeometry>
        </mxCell>
        <mxCell id="N_uz7s-ICIcDSKpqxhLz-16" value="RLOOP" style="text;html=1;align=left;verticalAlign=middle;resizable=0;points=[];autosize=1;strokeColor=none;fillColor=none;fontColor=#000000;fontStyle=0" parent="ebRNbiRUpSSi_KYoHrGS-14" vertex="1">
          <mxGeometry x="364" y="46" width="70" height="30" as="geometry" />
        </mxCell>
        <mxCell id="N_uz7s-ICIcDSKpqxhLz-17" value="&lt;b&gt;/&lt;/b&gt;" style="text;html=1;align=center;verticalAlign=middle;resizable=0;points=[];autosize=1;strokeColor=none;fillColor=none;" parent="ebRNbiRUpSSi_KYoHrGS-14" vertex="1">
          <mxGeometry x="306" y="46" width="30" height="30" as="geometry" />
        </mxCell>
        <mxCell id="N_uz7s-ICIcDSKpqxhLz-18" value="4" style="text;html=1;align=center;verticalAlign=middle;resizable=0;points=[];autosize=1;strokeColor=none;fillColor=none;" parent="ebRNbiRUpSSi_KYoHrGS-14" vertex="1">
          <mxGeometry x="306" y="30" width="30" height="30" as="geometry" />
        </mxCell>
        <mxCell id="N_uz7s-ICIcDSKpqxhLz-59" value="4 bit cont" style="text;html=1;align=center;verticalAlign=middle;resizable=0;points=[];autosize=1;strokeColor=none;fillColor=none;" parent="ebRNbiRUpSSi_KYoHrGS-14" vertex="1">
          <mxGeometry x="190" width="70" height="30" as="geometry" />
        </mxCell>
        <mxCell id="N_uz7s-ICIcDSKpqxhLz-60" value="Conocer el bit que esta leyendo" style="text;html=1;align=center;verticalAlign=middle;resizable=0;points=[];autosize=1;strokeColor=none;fillColor=none;" parent="ebRNbiRUpSSi_KYoHrGS-14" vertex="1">
          <mxGeometry x="450" y="40" width="190" height="30" as="geometry" />
        </mxCell>
        <mxCell id="n_aLUPieSMHFs7jvUW3T-15" value="" style="triangle;whiteSpace=wrap;html=1;" parent="ebRNbiRUpSSi_KYoHrGS-14" vertex="1">
          <mxGeometry x="170" y="120" width="20" height="20" as="geometry" />
        </mxCell>
        <mxCell id="n_aLUPieSMHFs7jvUW3T-16" value="" style="edgeStyle=none;orthogonalLoop=1;jettySize=auto;html=1;rounded=0;endArrow=none;endFill=0;" parent="ebRNbiRUpSSi_KYoHrGS-14" edge="1">
          <mxGeometry width="100" relative="1" as="geometry">
            <mxPoint x="150" y="165" as="sourcePoint" />
            <mxPoint x="170" y="129.70999999999998" as="targetPoint" />
            <Array as="points">
              <mxPoint x="150" y="130" />
            </Array>
          </mxGeometry>
        </mxCell>
        <mxCell id="n_aLUPieSMHFs7jvUW3T-17" value="clk" style="text;html=1;align=center;verticalAlign=middle;resizable=0;points=[];autosize=1;strokeColor=none;fillColor=none;" parent="ebRNbiRUpSSi_KYoHrGS-14" vertex="1">
          <mxGeometry x="110" y="140" width="40" height="30" as="geometry" />
        </mxCell>
        <mxCell id="ebRNbiRUpSSi_KYoHrGS-3" style="edgeStyle=orthogonalEdgeStyle;rounded=0;orthogonalLoop=1;jettySize=auto;html=1;startArrow=none;startFill=0;endArrow=none;endFill=0;" parent="ebRNbiRUpSSi_KYoHrGS-14" source="ebRNbiRUpSSi_KYoHrGS-4" edge="1">
          <mxGeometry relative="1" as="geometry">
            <mxPoint x="225" y="170" as="targetPoint" />
          </mxGeometry>
        </mxCell>
        <mxCell id="ebRNbiRUpSSi_KYoHrGS-4" value="" style="ellipse;whiteSpace=wrap;html=1;" parent="ebRNbiRUpSSi_KYoHrGS-14" vertex="1">
          <mxGeometry x="220" y="140" width="10" height="10" as="geometry" />
        </mxCell>
        <mxCell id="ebRNbiRUpSSi_KYoHrGS-5" value="RESET_L*" style="text;html=1;align=center;verticalAlign=middle;resizable=0;points=[];autosize=1;strokeColor=none;fillColor=none;" parent="ebRNbiRUpSSi_KYoHrGS-14" vertex="1">
          <mxGeometry x="190" y="170" width="80" height="30" as="geometry" />
        </mxCell>
      </root>
    </mxGraphModel>
  </diagram>
</mxfile>
